HIERARCHY
ROOT Hips
{
	OFFSET 0.00000 0.00000 0.00000
	CHANNELS 6 Xposition Yposition Zposition Zrotation Yrotation Xrotation 
	JOINT LHipJoint
	{
		OFFSET 0 0 0
		CHANNELS 3 Zrotation Yrotation Xrotation
		JOINT LeftHip
		{
			OFFSET 1.37590 -1.78394 0.89329
			CHANNELS 3 Zrotation Yrotation Xrotation
			JOINT LeftKnee
			{
				OFFSET 2.47928 -6.81178 0.00000
				CHANNELS 3 Zrotation Yrotation Xrotation
				JOINT LeftAnkle
				{
					OFFSET 2.63345 -7.23535 0.00000
					CHANNELS 3 Zrotation Yrotation Xrotation
					JOINT LeftToe
					{
						OFFSET 0.23938 -0.65768 2.27012
						CHANNELS 3 Zrotation Yrotation Xrotation
						End Site
						{
							OFFSET 0.00000 -0.00000 1.18363
						}
					}
				}
			}
		}
	}
	JOINT RHipJoint
	{
		OFFSET 0 0 0
		CHANNELS 3 Zrotation Yrotation Xrotation
		JOINT RightHip
		{
			OFFSET -1.33617 -1.78394 0.89329
			CHANNELS 3 Zrotation Yrotation Xrotation
			JOINT RightKnee
			{
				OFFSET -2.56922 -7.05888 0.00000
				CHANNELS 3 Zrotation Yrotation Xrotation
				JOINT RightAnkle
				{
					OFFSET -2.56568 -7.04915 0.00000
					CHANNELS 3 Zrotation Yrotation Xrotation
					JOINT RightToe
					{
						OFFSET -0.27533 -0.75646 2.18105
						CHANNELS 3 Zrotation Yrotation Xrotation
						End Site
						{
							OFFSET -0.00000 -0.00000 1.15233
						}
					}
				}
			}
		}
	}
	JOINT lowerback
	{
		OFFSET 0 0 0
		CHANNELS 3 Zrotation Yrotation Xrotation
		JOINT Chest
		{
			OFFSET 0.06190 2.15152 -0.00935
			CHANNELS 3 Zrotation Yrotation Xrotation
			JOINT Chest2
			{
				OFFSET 0.06334 2.15332 0.00872
				CHANNELS 3 Zrotation Yrotation Xrotation
				JOINT lowerneck
				{
					OFFSET 0 0 0
					CHANNELS 3 Zrotation Yrotation Xrotation
					JOINT Neck
					{
						OFFSET -0.04202 1.66908 0.23524
						CHANNELS 3 Zrotation Yrotation Xrotation
						JOINT Head
						{
							OFFSET 0.07510 1.69357 -0.24440
							CHANNELS 3 Zrotation Yrotation Xrotation
							End Site
							{
								OFFSET 0.02556 1.71719 -0.11000
							}
						}
					}
				}
				JOINT LeftCollar
				{
					OFFSET 0 0 0
					CHANNELS 3 Zrotation Yrotation Xrotation
					JOINT LeftShoulder
					{
						OFFSET 3.67168 1.26306 -0.41342
CHANNELS 3 Zrotation Xrotation Yrotation
						JOINT LeftElbow
						{
OFFSET 0 -4.685100 -0.000000
CHANNELS 3 Zrotation Xrotation Yrotation
							JOINT LeftWrist
							{
OFFSET 0 -3.396260 -0.000000
CHANNELS 3 Zrotation Xrotation Yrotation
								JOINT lhand
								{
									OFFSET 0 0 0
CHANNELS 3 Zrotation Xrotation Yrotation
									JOINT LFingers
									{
OFFSET 0 -0.486080 -0.000000
CHANNELS 3 Zrotation Xrotation Yrotation
										End Site
										{
OFFSET 0 -0.391890 -0.000000
										}
									}
								}
								JOINT LThumb
								{
OFFSET 0 0.000000 0.000000
CHANNELS 3 Zrotation Xrotation Yrotation
									End Site
									{
OFFSET 0 -0.397870 0.397870
									}
								}
							}
						}
					}
				}
				JOINT RightCollar
				{
					OFFSET 0 0 0
					CHANNELS 3 Zrotation Yrotation Xrotation
					JOINT RightShoulder
					{
						OFFSET -3.04136 1.42992 -0.76390
CHANNELS 3 Zrotation Xrotation Yrotation
						JOINT RightElbow
						{
OFFSET 0 -5.555760 -0.000000
CHANNELS 3 Zrotation Xrotation Yrotation
							JOINT RightWrist
							{
OFFSET 0 -3.327740 -0.000000
CHANNELS 3 Zrotation Xrotation Yrotation
								JOINT rhand
								{
									OFFSET 0 0 0
CHANNELS 3 Zrotation Xrotation Yrotation
									JOINT RFingers
									{
OFFSET 0 -0.507630 -0.000000
CHANNELS 3 Zrotation Xrotation Yrotation
										End Site
										{
OFFSET 0 -0.409260 -0.000000
										}
									}
								}
								JOINT RThumb
								{
OFFSET 0 0.000000 0.000000
CHANNELS 3 Zrotation Xrotation Yrotation
									End Site
									{
OFFSET 0 -0.415510 0.415510
									}
								}
							}
						}
					}
				}
			}
		}
	}
}
MOTION
Frames: 6
Frame Time: 0.008333333333333333
33.125800 17.707500 6.189200 -139.070000 -85.922500 146.530000 0.000000 0.000000 0.000000 -20.732800 -6.197700 -4.520400 0.521100 4.626300 12.845700 0.373300 -0.849900 -11.274600 0.152000 -2.512000 -6.922900 0.000000 0.000000 0.000000 17.166700 5.393400 -35.157500 -6.191300 -14.611200 45.744700 0.415000 -14.366900 -14.729400 -0.029700 -1.113200 3.060500 0.285500 -0.705200 -0.554800 2.630400 -0.955500 -1.150800 2.538800 -0.482200 -0.827600 -4.899600 -4.075800 -8.982900 4.989600 -6.588200 23.284500 1.796200 -3.222500 9.091700 0.000000 -0.000000 0.000000 -6.343700 -22.156200 -57.167500 36.538200 -45.879800 15.907600 6.159100 3.033800 -21.571700 0.000000 0.000000 0.000000 -7.125000 0.000000 0.000000 -22.346800 50.283400 3.043100 0.000000 -0.000000 0.000000 -18.233900 -20.872200 64.194800 -50.590100 -53.230700 -26.646100 -18.687800 21.451500 6.718800 0.000000 0.000000 0.000000 7.125000 0.000000 -0.000000 6.843200 36.992400 1.355900
33.035118 17.701001 6.188435 -138.361209 -86.145536 145.827326 0.000000 0.000000 0.000000 -20.930604 -6.175144 -4.175256 0.520335 4.623089 12.836678 0.388516 -1.020866 -11.461317 0.161328 -2.587314 -7.131791 0.000000 0.000000 0.000000 16.984341 5.413739 -35.355992 -5.783305 -14.211310 44.098576 0.430292 -14.438391 -14.604922 -0.024501 -1.008296 2.771631 0.278389 -0.711546 -0.606640 2.536812 -0.967734 -0.876765 2.442765 -0.489693 -0.518622 -4.789114 -4.249595 -9.641915 5.104826 -6.831116 23.264850 1.775479 -3.292997 9.223442 0.000000 0.000000 0.000000 -6.054067 -22.656789 -57.373715 35.656990 -45.272549 15.279245 6.909180 5.597377 -20.870172 0.000000 0.000000 0.000000 -7.125000 0.000000 0.000000 -21.313127 49.745957 2.603756 0.000000 0.000000 0.000000 -18.233212 -20.458012 63.190411 -49.812112 -52.917899 -26.024550 -17.800090 20.815346 7.834668 0.000000 0.000000 0.000000 7.125000 0.000000 0.000000 7.752242 38.095194 1.319811
32.945652 17.694555 6.185660 -137.279321 -86.333379 144.779073 0.000000 0.000000 0.000000 -21.056858 -6.142956 -3.898487 0.523328 4.636071 12.873432 0.404790 -1.192256 -11.660736 0.172244 -2.672947 -7.369577 0.000000 0.000000 0.000000 16.848606 5.509702 -35.526753 -5.377639 -13.791204 42.418582 0.443997 -14.490407 -14.464726 -0.023800 -0.995687 2.736892 0.175861 -0.748322 -0.441026 2.557429 -1.013837 -0.863050 2.524071 -0.511475 -0.593325 -4.834959 -4.351682 -9.873219 5.185442 -6.973163 23.296904 1.789263 -3.347776 9.291308 0.000000 0.000000 0.000000 -5.846620 -22.614773 -57.368614 34.874637 -44.719330 14.726092 7.643913 8.100199 -20.169121 0.000000 0.000000 0.000000 -7.125000 0.000000 0.000000 -20.310625 49.199147 2.191297 0.000000 0.000000 0.000000 -18.292748 -19.658132 62.395751 -49.067252 -52.610390 -25.431631 -17.216733 20.163687 8.981020 0.000000 0.000000 0.000000 7.125000 0.000000 0.000000 8.431816 39.239531 1.199576
32.855582 17.686340 6.181931 -136.292689 -86.502043 143.868876 0.000000 0.000000 0.000000 -21.160778 -6.101372 -3.658506 0.523996 4.638951 12.881539 0.420683 -1.361689 -11.853081 0.179371 -2.728118 -7.522754 0.000000 0.000000 0.000000 16.723795 5.644004 -35.701811 -4.973303 -13.348356 40.696492 0.462666 -14.541957 -14.223457 -0.023278 -0.984611 2.706414 0.065768 -0.795078 -0.342525 2.592997 -1.073654 -0.910092 2.624522 -0.540083 -0.691629 -4.930652 -4.412853 -9.815113 5.289565 -7.062470 23.218325 1.831940 -3.388189 9.265826 0.000000 0.000000 0.000000 -5.634713 -22.389557 -57.271137 34.102495 -44.157208 14.185556 8.277561 10.329834 -19.530190 0.000000 0.000000 0.000000 -7.125000 0.000000 0.000000 -19.443013 48.689865 1.836191 0.000000 0.000000 0.000000 -18.270828 -18.748459 61.609432 -48.129366 -52.207686 -24.689257 -16.813792 19.573121 10.117923 0.000000 0.000000 0.000000 7.125000 0.000000 0.000000 8.978326 40.378164 1.027663
32.763706 17.675364 6.178102 -135.714594 -86.665788 143.413197 0.000000 0.000000 0.000000 -21.280809 -6.051509 -3.426883 0.518507 4.615147 12.814087 0.435274 -1.527592 -12.025783 0.179633 -2.729718 -7.527006 0.000000 0.000000 0.000000 16.581093 5.786534 -35.898863 -4.570909 -12.882177 38.931341 0.489843 -14.604253 -13.835831 -0.019977 -0.913002 2.509330 0.009226 -0.835600 -0.496477 2.572140 -1.130412 -0.868723 2.631775 -0.568953 -0.559676 -4.993499 -4.461744 -9.614630 5.452935 -7.141632 22.935583 1.894357 -3.417714 9.142905 0.000000 0.000000 0.000000 -5.359351 -22.260734 -57.178230 33.279567 -43.543017 13.614546 8.767035 12.172636 -19.003309 0.000000 0.000000 0.000000 -7.125000 0.000000 0.000000 -18.769147 48.260223 1.561266 0.000000 0.000000 0.000000 -18.079783 -17.940849 60.682697 -46.871624 -51.652123 -23.697936 -16.488965 19.089128 11.223036 0.000000 0.000000 0.000000 7.125000 0.000000 0.000000 9.473357 41.483107 0.828769
32.672182 17.665730 6.174203 -135.015743 -86.838360 142.800746 0.000000 0.000000 0.000000 -21.411786 -6.000586 -3.172804 0.515984 4.603984 12.782509 0.450643 -1.692365 -12.207454 0.183991 -2.762673 -7.618682 0.000000 0.000000 0.000000 16.412191 5.937468 -36.039704 -4.186312 -12.400321 37.169226 0.510028 -14.637667 -13.501238 -0.018372 -0.875077 2.405038 -0.075493 -0.869625 -0.528897 2.563500 -1.176365 -0.824528 2.669393 -0.591891 -0.492620 -5.040599 -4.536905 -9.613712 5.579019 -7.250665 22.773104 1.933046 -3.458468 9.099781 0.000000 0.000000 0.000000 -5.111389 -22.170893 -57.109262 32.496609 -42.937371 13.078632 9.339344 14.107169 -18.631786 0.000000 0.000000 0.000000 -7.125000 0.000000 0.000000 -18.093234 47.985729 1.376307 0.000000 0.000000 0.000000 -17.940854 -17.170736 59.703846 -45.771430 -51.138154 -22.838669 -16.235957 18.576535 12.389445 0.000000 0.000000 0.000000 7.125000 0.000000 0.000000 9.946496 42.649134 0.579736
